HIERARCHY
ROOT Model_Hips
{
	OFFSET 0.000000 96.915077 0.000000
	CHANNELS 6 Xposition Yposition Zposition Xrotation Yrotation Zrotation
	JOINT Model_Spine
	{
		OFFSET 0.000000 11.137703 -1.289900
		CHANNELS 3 Xrotation Yrotation Zrotation
		JOINT Model_Spine1
		{
			OFFSET 0.000000 12.993942 -1.504922
			CHANNELS 3 Xrotation Yrotation Zrotation
			JOINT Model_Spine2
			{
				OFFSET 0.000000 14.850220 -1.719911
				CHANNELS 3 Xrotation Yrotation Zrotation
				JOINT Model_Neck
				{
					OFFSET 0.000000 16.706543 -1.934903
					CHANNELS 3 Xrotation Yrotation Zrotation
					JOINT Model_Head
					{
						OFFSET 0.000000 10.471298 2.002100
						CHANNELS 3 Xrotation Yrotation Zrotation
						JOINT Model_HeadTop_End
						{
							OFFSET 0.000000 20.842606 3.985100
							CHANNELS 3 Xrotation Yrotation Zrotation
							End Site
							{
								OFFSET 0.000000 21.220154 0.000000
							}
						}
					}
				}
				JOINT Model_LeftShoulder
				{
					OFFSET 7.008500 14.768600 -1.919946
					CHANNELS 3 Xrotation Yrotation Zrotation
					JOINT Model_LeftArm
					{
						OFFSET 14.126271 -3.718048 0.029937
						CHANNELS 3 Xrotation Yrotation Zrotation
						JOINT Model_LeftForeArm
						{
							OFFSET 28.282801 0.000000 0.000000
							CHANNELS 3 Xrotation Yrotation Zrotation
							JOINT Model_LeftHand
							{
								OFFSET 26.204689 0.000000 0.000000
								CHANNELS 3 Xrotation Yrotation Zrotation
								End Site
								{
									OFFSET 26.204704 0.000000 0.000000
								}
							}
						}
					}
				}
				JOINT Model_RightShoulder
				{
					OFFSET -7.008500 14.768555 -1.949840
					CHANNELS 3 Xrotation Yrotation Zrotation
					JOINT Model_RightArm
					{
						OFFSET -14.126281 -3.718018 -0.029932
						CHANNELS 3 Xrotation Yrotation Zrotation
						JOINT Model_RightForeArm
						{
							OFFSET -28.283798 0.000000 -0.000001
							CHANNELS 3 Xrotation Yrotation Zrotation
							JOINT Model_RightHand
							{
								OFFSET -26.204193 0.000000 -0.000001
								CHANNELS 3 Xrotation Yrotation Zrotation
								End Site
								{
									OFFSET -26.204208 0.000000 -0.000001
								}
							}
						}
					}
				}
			}
		}
	}
	JOINT Model_LeftUpLeg
	{
		OFFSET 8.327700 -6.193199 -0.402800
		CHANNELS 3 Xrotation Yrotation Zrotation
		JOINT Model_LeftLeg
		{
			OFFSET 0.735802 -42.108742 -0.610721
			CHANNELS 3 Xrotation Yrotation Zrotation
			JOINT Model_LeftFoot
			{
				OFFSET -0.735806 -36.833748 -0.172876
				CHANNELS 3 Xrotation Yrotation Zrotation
				JOINT Model_LeftToeBase
				{
					OFFSET -0.565857 -11.977769 16.297714
					CHANNELS 3 Xrotation Yrotation Zrotation
					JOINT Model_LeftToe_End
					{
						OFFSET -0.111712 -0.312793 7.857784
						CHANNELS 3 Xrotation Yrotation Zrotation
						End Site
						{
							OFFSET -0.111712 -0.312793 7.857784
						}
					}
				}
			}
		}
	}
	JOINT Model_RightUpLeg
	{
		OFFSET -8.327700 -6.193199 -0.516500
		CHANNELS 3 Xrotation Yrotation Zrotation
		JOINT Model_RightLeg
		{
			OFFSET -0.735785 -42.108738 -0.434061
			CHANNELS 3 Xrotation Yrotation Zrotation
			JOINT Model_RightFoot
			{
				OFFSET 0.735776 -36.833748 -0.021630
				CHANNELS 3 Xrotation Yrotation Zrotation
				JOINT Model_RightToeBase
				{
					OFFSET 0.565817 -11.977745 15.903093
					CHANNELS 3 Xrotation Yrotation Zrotation
					JOINT Model_RightToe_End
					{
						OFFSET 0.111702 -0.312791 7.811342
						CHANNELS 3 Xrotation Yrotation Zrotation
						End Site
						{
							OFFSET 0.111702 -0.312791 7.811342
						}
					}
				}
			}
		}
	}
}
MOTION
Frames: 5
Frame Time: 0.016667
2.618388 92.271637 145.604736 13.719088 9.609538 -6.837011 14.197814 -12.659229 4.084364 0.488087 -3.683324 0.419581 0.513403 -3.690141 0.439428 -10.408539 -0.467682 1.959303 -10.379486 -0.452863 2.096553 0.000000 0.000000 0.000000 4.666090 -3.816607 -7.651429 -0.998847 -42.138166 -31.061296 -0.000051 -102.596053 -0.000067 -0.000002 -0.000000 0.000000 3.226362 -11.011826 11.571688 43.211363 -3.396365 50.989322 0.000004 48.571743 0.000009 -0.000000 -0.000001 0.000001 3.895446 4.726726 5.200074 20.376271 -5.833516 2.423712 -19.110480 -7.803851 1.771276 -18.408900 -0.004601 0.519529 0.000001 0.000000 -0.000000 -56.201713 -3.592373 0.653616 123.233893 -1.466167 -0.774920 -17.873480 -0.900979 -1.506103 -6.028272 0.000003 0.000005 -0.000001 0.000000 -0.000000 
2.608198 93.079193 151.694916 14.005239 8.830392 -8.002313 14.147512 -13.261032 5.824243 0.013207 -3.958154 0.683189 0.038027 -3.968208 0.721499 -10.711715 -0.412221 2.377309 -10.674178 -0.381057 2.530574 0.000000 0.000001 -0.000000 4.717358 -1.971951 -6.465701 -2.273211 -43.272223 -29.389481 0.000008 -107.961891 -0.000028 0.000002 -0.000001 -0.000001 3.096453 -11.342788 10.656440 46.659751 -4.864126 51.091113 0.000032 50.592919 -0.000023 0.000000 0.000000 0.000000 7.772304 7.113508 7.035087 15.642371 -6.769046 1.922904 -9.445623 -7.117140 0.943114 -26.839879 -0.276737 1.686985 0.000000 -0.000000 -0.000000 -59.193602 -4.122619 2.787762 117.463517 -0.341697 -1.149389 -18.975963 -1.218189 -0.993375 -5.934462 0.000005 0.000003 -0.000001 -0.000000 0.000000 
2.633826 93.932632 157.733521 14.391258 7.650723 -8.768373 14.012179 -13.713803 7.130790 -0.478114 -4.161405 0.926156 -0.450123 -4.171172 0.985695 -11.029246 -0.354224 2.808498 -10.983372 -0.308689 2.975311 0.000000 0.000002 -0.000000 4.780080 0.164340 -5.734173 -3.875196 -43.857796 -27.762439 0.000058 -112.450855 0.000036 -0.000002 0.000001 -0.000000 2.996207 -11.386021 9.992845 48.987735 -6.245449 50.843778 0.000026 52.246111 -0.000022 0.000000 0.000001 -0.000000 7.458292 8.398735 9.181869 17.577548 -6.797970 1.459084 0.136429 -5.267647 -6.301629 -34.001389 -2.683405 6.791261 -0.000000 -0.000000 -0.000000 -61.662333 -4.043655 4.684658 110.967030 1.059394 -1.491358 -19.708994 -1.419047 -0.240418 -5.780071 0.000001 -0.000002 -0.000001 -0.000001 0.000000 
2.690248 94.919479 163.784241 14.851886 6.276186 -9.134221 13.715597 -14.046335 7.986674 -0.887917 -4.300755 1.156694 -0.854005 -4.308408 1.235441 -11.339029 -0.282910 3.197952 -11.285889 -0.227633 3.375000 -0.000000 -0.000001 0.000000 4.873492 2.269225 -5.473704 -5.413817 -43.874243 -26.146041 0.000021 -115.971585 0.000014 0.000002 0.000000 -0.000000 2.932039 -11.304949 9.547381 50.297595 -7.498496 50.234546 -0.000009 53.542632 -0.000004 -0.000001 -0.000000 -0.000002 8.773212 9.137927 10.273453 16.341402 -4.874402 1.233213 9.189439 -3.731959 -13.910553 -32.111533 -4.668772 10.072784 -0.000002 -0.000001 -0.000000 -63.308791 -3.442737 6.089444 103.564977 2.165631 -1.617084 -20.227831 -1.690457 1.013035 -5.567996 0.000001 0.000000 -0.000003 -0.000000 -0.000000 
2.767225 96.069466 169.924072 15.305141 4.871186 -9.129537 13.209419 -14.251725 8.420915 -1.126863 -4.378603 1.359930 -1.086659 -4.384242 1.450236 -11.614177 -0.196846 3.500520 -11.555510 -0.137415 3.683639 0.000000 0.000002 0.000000 5.000088 4.046367 -5.547919 -6.486289 -43.306405 -24.595455 0.000009 -118.488906 -0.000015 -0.000001 0.000000 -0.000001 2.895352 -11.257898 9.245276 50.775203 -8.519969 49.368997 -0.000021 54.502447 0.000029 0.000000 0.000003 -0.000002 10.593851 9.125419 9.659166 17.755507 -2.322556 1.387097 9.026547 -0.655871 -14.443782 -7.349493 -0.452590 5.182594 0.000001 0.000001 0.000000 -63.854243 -2.539586 6.845990 95.144822 2.245042 -1.369534 -20.602735 -2.137304 2.447587 -5.326530 0.000002 -0.000002 -0.000002 0.000000 0.000001 
